<svg height="512pt" viewBox="-48 0 512 512" width="512pt" xmlns="http://www.w3.org/2000/svg"><path d="m328.140625 55.609375h-304.59375c-8.855469 0-16.03125-7.179687-16.03125-16.03125v-16.03125c0-8.855469 7.175781-16.03125 16.03125-16.03125h304.59375c8.855469 0 16.03125 7.175781 16.03125 16.03125v16.03125c0 8.851563-7.175781 16.03125-16.03125 16.03125zm0 0" fill="#e2ec9b"/><path d="m39.578125 39.578125v-16.03125c0-8.855469 7.175781-16.03125 16.03125-16.03125h-32.0625c-8.855469 0-16.03125 7.175781-16.03125 16.03125v16.03125c0 8.851563 7.175781 16.03125 16.03125 16.03125h32.0625c-8.855469 0-16.03125-7.179687-16.03125-16.03125zm0 0" fill="#c4d936"/><path d="m328.140625 504.484375h-304.59375c-8.855469 0-16.03125-7.175781-16.03125-16.03125v-16.03125c0-8.851563 7.175781-16.03125 16.03125-16.03125h304.59375c8.855469 0 16.03125 7.179687 16.03125 16.03125v16.03125c0 8.855469-7.175781 16.03125-16.03125 16.03125zm0 0" fill="#e2ec9b"/><path d="m39.578125 488.453125v-16.03125c0-8.851563 7.175781-16.03125 16.03125-16.03125h-32.0625c-8.855469 0-16.03125 7.179687-16.03125 16.03125v16.03125c0 8.855469 7.175781 16.03125 16.03125 16.03125h32.0625c-8.855469 0-16.03125-7.175781-16.03125-16.03125zm0 0" fill="#c4d936"/><path d="m207.90625 256c0-96.1875 80.886719-118.585938 104.203125-160.3125 4.886719-8.746094 8.015625-40.078125 8.015625-40.078125h-288.5625s3.128906 31.332031 8.015625 40.078125c23.316406 41.726562 104.203125 64.125 104.203125 160.3125s-80.886719 118.585938-104.203125 160.3125c-4.886719 8.746094-8.015625 40.078125-8.015625 40.078125h288.5625s-3.128906-31.332031-8.015625-40.078125c-23.316406-41.726562-104.203125-64.125-104.203125-160.3125zm0 0" fill="#f4f0f9"/><path d="m175.84375 256c0-96.1875-80.886719-118.585938-104.203125-160.3125-4.886719-8.746094-8.015625-40.078125-8.015625-40.078125h-32.0625s3.128906 31.332031 8.015625 40.078125c23.316406 41.726562 104.203125 64.125 104.203125 160.3125s-80.886719 118.585938-104.203125 160.3125c-4.886719 8.746094-8.015625 40.078125-8.015625 40.078125h32.0625s3.128906-31.332031 8.015625-40.078125c23.316406-41.726562 104.203125-64.125 104.203125-160.3125zm0 0" fill="#e8e2f3"/><path d="m160.480469 79.65625-51.121094 51.121094c17.113281 15.671875 34.675781 35.015625 46.023437 61.429687h40.921876c15.492187-36.050781 42.558593-58.945312 64.253906-77.292969 12.730468-10.769531 24.765625-20.949218 30.304687-30.507812.386719-1.019531.828125-2.664062 1.296875-4.75zm0 0" fill="#ffdb7e"/><path d="m260.558594 397.085938c-21.5625-18.234376-48.425782-40.960938-63.960938-76.625h-41.507812c-15.539063 35.664062-42.398438 58.394531-63.960938 76.625-12.730468 10.769531-24.765625 20.949218-30.304687 30.507812-.386719 1.019531-.828125 2.664062-1.296875 4.75h232.632812c-.46875-2.085938-.910156-3.734375-1.296875-4.75-5.539062-9.558594-17.574219-19.738281-30.304687-30.507812zm0 0" fill="#ffdb7e"/><path d="m328.140625 448.875h-1.296875c-1.285156-10.488281-4.023438-28.796875-8.175781-36.226562-8.207031-14.691407-22.546875-26.820313-37.730469-39.660157-30.710938-25.972656-65.515625-55.410156-65.515625-116.988281s34.804687-91.015625 65.515625-116.988281c15.183594-12.839844 29.523438-24.96875 37.730469-39.660157 4.152343-7.429687 6.890625-25.738281 8.175781-36.226562h1.296875c12.984375 0 23.546875-10.5625 23.546875-23.546875v-16.03125c0-12.984375-10.5625-23.546875-23.546875-23.546875h-32.0625c-4.152344 0-7.515625 3.363281-7.515625 7.515625 0 4.148437 3.363281 7.515625 7.515625 7.515625h32.0625c4.695313 0 8.515625 3.820312 8.515625 8.515625v16.03125c0 4.695313-3.820312 8.515625-8.515625 8.515625h-304.59375c-4.695313 0-8.515625-3.820312-8.515625-8.515625v-16.03125c0-4.695313 3.820312-8.515625 8.515625-8.515625h236.792969c4.152344 0 7.515625-3.367188 7.515625-7.515625 0-4.152344-3.363281-7.515625-7.515625-7.515625h-236.792969c-12.984375 0-23.546875 10.5625-23.546875 23.546875v16.03125c0 12.984375 10.5625 23.546875 23.546875 23.546875h1.296875c1.285156 10.488281 4.023438 28.796875 8.171875 36.226562 8.210937 14.691407 22.550781 26.820313 37.734375 39.660157 30.710938 25.972656 65.515625 55.410156 65.515625 116.988281s-34.804687 91.015625-65.515625 116.988281c-15.183594 12.839844-29.523438 24.96875-37.734375 39.660157-4.148437 7.429687-6.886719 25.738281-8.171875 36.226562h-1.296875c-12.984375 0-23.546875 10.5625-23.546875 23.546875v16.03125c0 12.984375 10.5625 23.546875 23.546875 23.546875h304.59375c12.984375 0 23.546875-10.5625 23.546875-23.546875v-16.03125c0-12.984375-10.5625-23.546875-23.546875-23.546875zm-282.003906-28.898438c6.878906-12.308593 19.59375-23.0625 34.320312-35.511718 31.558594-26.695313 70.839844-59.914063 70.839844-128.464844s-39.28125-101.769531-70.839844-128.464844c-14.726562-12.449218-27.441406-23.203125-34.320312-35.511718-2.265625-4.054688-4.640625-17.390626-6.140625-28.898438h271.695312c-1.496094 11.503906-3.875 24.839844-6.140625 28.898438-6.878906 12.308593-19.597656 23.0625-34.320312 35.511718-31.558594 26.695313-70.839844 59.914063-70.839844 128.464844s39.28125 101.769531 70.839844 128.464844c14.722656 12.449218 27.441406 23.203125 34.320312 35.511718 2.261719 4.054688 4.640625 17.390626 6.140625 28.898438h-271.695312c1.496094-11.503906 3.875-24.839844 6.140625-28.898438zm290.519531 68.476563c0 4.695313-3.820312 8.515625-8.515625 8.515625h-304.59375c-4.695313 0-8.515625-3.820312-8.515625-8.515625v-16.03125c0-4.695313 3.820312-8.515625 8.515625-8.515625h304.59375c4.695313 0 8.515625 3.820312 8.515625 8.515625zm0 0"/><path d="m196.304688 199.722656c3.003906 0 5.71875-1.789062 6.902343-4.546875 14.796875-34.433593 41.082031-56.664062 62.207031-74.527343 13.25-11.207032 25.761719-21.789063 31.953126-32.476563.75-1.300781 1.125-2.84375 1.503906-4.289063.480468-1.839843 1.03125-3.703124.671875-5.613281-.660157-3.507812-3.8125-6.128906-7.382813-6.128906h-131.679687c-1.992188 0-3.90625.792969-5.316407 2.199219l-51.117187 51.121094c-2.984375 2.984374-2.875 8.007812.234375 10.855468 14.515625 13.292969 32.65625 32 44.195312 58.859375 1.1875 2.757813 3.902344 4.546875 6.90625 4.546875zm-76.140626-69.121094 43.425782-43.429687h115.976562c-5.878906 6.792969-14.675781 14.234375-23.863281 22.003906-21.414063 18.109375-47.847656 40.464844-64.261719 75.519531h-31.195312c-11.074219-23.644531-26.488282-41.035156-40.082032-54.09375zm0 0"/><path d="m297.886719 424.925781c-.144531-.378906-.316407-.746093-.519531-1.097656-6.191407-10.6875-18.703126-21.273437-31.953126-32.476563l-.003906-.003906c-20.976562-17.738281-47.078125-39.8125-61.925781-73.890625-1.191406-2.742187-3.898437-4.511719-6.886719-4.511719h-41.507812c-2.988282 0-5.695313 1.769532-6.886719 4.511719-14.847656 34.078125-40.949219 56.152344-61.929687 73.894531-13.25 11.207032-25.761719 21.789063-31.953126 32.476563-.976562 1.691406-1.375 3.699219-1.835937 5.578125-.464844 1.890625-.6875 3.804688.042969 5.660156 1.113281 2.828125 3.953125 4.792969 7 4.792969h232.628906c3.113281 0 6.09375-2.089844 7.089844-5.050781 1.085937-3.238282-.207032-6.847656-1.359375-9.882813zm-225.769531-.097656c5.882812-6.792969 14.679687-14.234375 23.867187-22.003906 21.257813-17.980469 47.5-40.171875 63.941406-74.851563h31.832031c16.445313 34.679688 42.6875 56.871094 63.945313 74.851563l.007813.003906c9.179687 7.765625 17.976562 15.207031 23.859374 22zm0 0"/><path d="m183.359375 215.921875c0-4.152344-3.363281-7.515625-7.515625-7.515625s-7.515625 3.363281-7.515625 7.515625v16.03125c0 4.152344 3.363281 7.515625 7.515625 7.515625s7.515625-3.363281 7.515625-7.515625zm0 0"/><path d="m175.84375 264.515625c-4.152344 0-7.515625 3.363281-7.515625 7.515625v16.03125c0 4.152344 3.363281 7.515625 7.515625 7.515625s7.515625-3.363281 7.515625-7.515625v-16.03125c0-4.152344-3.363281-7.515625-7.515625-7.515625zm0 0"/><path d="m257.242188 267.269531c1.25 2.605469 3.886718 4.261719 6.773437 4.261719h32.0625c4.152344 0 7.515625-3.363281 7.515625-7.515625s-3.363281-7.515625-7.515625-7.515625h-16.429687l22.296874-27.867188c3.863282-4.832031.300782-12.210937-5.867187-12.210937h-32.0625c-4.152344 0-7.515625 3.363281-7.515625 7.515625s3.363281 7.515625 7.515625 7.515625h16.429687l-22.296874 27.867187c-1.804688 2.257813-2.15625 5.347657-.90625 7.949219zm0 0"/><path d="m352.1875 224.4375h-16.425781l22.292969-27.867188c3.863281-4.832031.300781-12.210937-5.867188-12.210937h-32.0625c-4.152344 0-7.515625 3.363281-7.515625 7.515625s3.363281 7.515625 7.515625 7.515625h16.429688l-22.296876 27.867187c-3.863281 4.832032-.296874 12.210938 5.867188 12.210938h32.0625c4.152344 0 7.515625-3.363281 7.515625-7.515625s-3.363281-7.515625-7.515625-7.515625zm0 0"/><path d="m408.296875 192.375h-16.425781l22.292968-27.867188c3.863282-4.832031.300782-12.210937-5.867187-12.210937h-32.0625c-4.152344 0-7.515625 3.363281-7.515625 7.515625s3.363281 7.515625 7.515625 7.515625h16.429687l-22.296874 27.867187c-3.863282 4.832032-.296876 12.210938 5.867187 12.210938h32.0625c4.152344 0 7.515625-3.363281 7.515625-7.515625s-3.363281-7.515625-7.515625-7.515625zm0 0"/></svg>